<?xml version="1.0" standalone="no"?>
<!DOCTYPE svg PUBLIC "-//W3C//DTD SVG 20010904//EN"
 "http://www.w3.org/TR/2001/REC-SVG-20010904/DTD/svg10.dtd">
<svg version="1.0" xmlns="http://www.w3.org/2000/svg"
 width="00.000000pt" height="700.000000pt" viewBox="0 0 700.000000 700.000000"
 preserveAspectRatio="xMidYMid meet">

<g transform="translate(0.000000,700.000000) scale(0.100000,-0.100000)"
fill="#000000" stroke="none">
<path d="M3506 5515 c-213 -123 -390 -225 -392 -228 -7 -6 768 -452 783 -451
14 2 785 445 781 450 -3 2 -741 430 -769 444 -11 6 -125 -55 -403 -215z"/>
<path d="M2666 5031 c-208 -121 -382 -223 -386 -228 -11 -10 747 -448 775
-448 21 1 775 432 775 444 0 8 -764 451 -777 451 -4 0 -178 -99 -387 -219z"/>
<path d="M4346 5030 c-209 -120 -383 -223 -387 -227 -9 -10 749 -448 776 -448
11 0 192 99 402 220 283 163 378 223 370 231 -17 16 -763 444 -773 444 -5 -1
-180 -99 -388 -220z"/>
<path d="M1829 4547 c-211 -122 -386 -226 -388 -231 -2 -5 171 -110 384 -233
343 -198 389 -222 408 -212 63 33 767 442 765 444 -2 2 -176 103 -388 225
-212 122 -388 224 -391 225 -3 2 -178 -96 -390 -218z"/>
<path d="M3505 4544 c-214 -124 -391 -227 -393 -228 -2 -2 174 -106 390 -231
292 -169 397 -224 408 -218 8 6 185 108 393 228 208 119 377 219 375 220 -2 2
-160 94 -353 205 -192 111 -368 213 -390 226 l-40 23 -390 -225z"/>
<path d="M5173 4537 l-383 -222 0 -453 c0 -254 4 -452 9 -450 4 2 180 102 390
223 l381 220 0 453 c0 248 -3 452 -7 451 -5 0 -180 -100 -390 -222z"/>
<path d="M2660 4057 l-385 -223 -3 -457 -2 -456 247 143 c137 78 312 179 391
225 l142 83 0 454 c0 250 -1 454 -2 454 -2 -1 -176 -101 -388 -223z"/>
<path d="M4340 4056 l-385 -223 -3 -457 -2 -458 32 20 c18 11 191 111 383 222
193 111 353 205 358 209 4 4 6 210 5 458 l-3 451 -385 -222z"/>
<path d="M1432 3794 l3 -456 385 -223 385 -222 3 450 c1 248 -1 454 -5 458 -5
5 -161 96 -348 204 -187 108 -359 208 -383 221 l-42 25 2 -457z"/>
<path d="M3110 3796 l0 -454 143 -83 c78 -46 253 -147 390 -225 l247 -143 -2
456 -3 457 -360 208 c-198 115 -372 215 -387 224 l-28 15 0 -455z"/>
</g>
</svg>
