<?xml version="1.0" encoding="UTF-8"?>
<svg xmlns="http://www.w3.org/2000/svg" xmlns:xlink="http://www.w3.org/1999/xlink" width="500px" height="500px" viewBox="0 0 500 500" version="1.1">
<g id="surface1">
<path style=" stroke:none;fill-rule:nonzero;fill:rgb(0%,0%,0%);fill-opacity:1;" d="M 250.429688 106.070312 C 235.214844 114.855469 222.570312 122.144531 222.429688 122.355469 C 221.929688 122.785156 277.285156 154.644531 278.355469 154.570312 C 279.355469 154.429688 334.429688 122.785156 334.144531 122.429688 C 333.929688 122.285156 281.214844 91.714844 279.214844 90.714844 C 278.429688 90.285156 270.285156 94.644531 250.429688 106.070312 Z M 250.429688 106.070312 "/>
<path style=" stroke:none;fill-rule:nonzero;fill:rgb(0%,0%,0%);fill-opacity:1;" d="M 190.429688 140.644531 C 175.570312 149.285156 163.144531 156.570312 162.855469 156.929688 C 162.070312 157.644531 216.214844 188.929688 218.214844 188.929688 C 219.714844 188.855469 273.570312 158.070312 273.570312 157.214844 C 273.570312 156.644531 219 125 218.070312 125 C 217.785156 125 205.355469 132.070312 190.429688 140.644531 Z M 190.429688 140.644531 "/>
<path style=" stroke:none;fill-rule:nonzero;fill:rgb(0%,0%,0%);fill-opacity:1;" d="M 310.429688 140.714844 C 295.5 149.285156 283.070312 156.644531 282.785156 156.929688 C 282.144531 157.644531 336.285156 188.929688 338.214844 188.929688 C 339 188.929688 351.929688 181.855469 366.929688 173.214844 C 387.144531 161.570312 393.929688 157.285156 393.355469 156.714844 C 392.144531 155.570312 338.855469 125 338.144531 125 C 337.785156 125.070312 325.285156 132.070312 310.429688 140.714844 Z M 310.429688 140.714844 "/>
<path style=" stroke:none;fill-rule:nonzero;fill:rgb(0%,0%,0%);fill-opacity:1;" d="M 130.644531 175.214844 C 115.570312 183.929688 103.070312 191.355469 102.929688 191.714844 C 102.785156 192.070312 115.144531 199.570312 130.355469 208.355469 C 154.855469 222.5 158.144531 224.214844 159.5 223.5 C 164 221.144531 214.285156 191.929688 214.144531 191.785156 C 214 191.644531 201.570312 184.429688 186.429688 175.714844 C 171.285156 167 158.714844 159.714844 158.5 159.644531 C 158.285156 159.5 145.785156 166.5 130.644531 175.214844 Z M 130.644531 175.214844 "/>
<path style=" stroke:none;fill-rule:nonzero;fill:rgb(0%,0%,0%);fill-opacity:1;" d="M 250.355469 175.429688 C 235.070312 184.285156 222.429688 191.644531 222.285156 191.714844 C 222.144531 191.855469 234.714844 199.285156 250.144531 208.214844 C 271 220.285156 278.5 224.214844 279.285156 223.785156 C 279.855469 223.355469 292.5 216.070312 307.355469 207.5 C 322.214844 199 334.285156 191.855469 334.144531 191.785156 C 334 191.644531 322.714844 185.070312 308.929688 177.144531 C 295.214844 169.214844 282.644531 161.929688 281.070312 161 L 278.214844 159.355469 Z M 250.355469 175.429688 "/>
<path style=" stroke:none;fill-rule:nonzero;fill:rgb(0%,0%,0%);fill-opacity:1;" d="M 369.5 175.929688 L 342.144531 191.785156 L 342.144531 224.144531 C 342.144531 242.285156 342.429688 256.429688 342.785156 256.285156 C 343.070312 256.144531 355.644531 249 370.644531 240.355469 L 397.855469 224.644531 L 397.855469 192.285156 C 397.855469 174.570312 397.644531 160 397.355469 160.070312 C 397 160.070312 384.5 167.214844 369.5 175.929688 Z M 369.5 175.929688 "/>
<path style=" stroke:none;fill-rule:nonzero;fill:rgb(0%,0%,0%);fill-opacity:1;" d="M 190 210.214844 L 162.5 226.144531 L 162.285156 258.785156 L 162.144531 291.355469 L 179.785156 281.144531 C 189.570312 275.570312 202.070312 268.355469 207.714844 265.070312 L 217.855469 259.144531 L 217.855469 226.714844 C 217.855469 208.855469 217.785156 194.285156 217.714844 194.285156 C 217.570312 194.355469 205.144531 201.5 190 210.214844 Z M 190 210.214844 "/>
<path style=" stroke:none;fill-rule:nonzero;fill:rgb(0%,0%,0%);fill-opacity:1;" d="M 310 210.285156 L 282.5 226.214844 L 282.285156 258.855469 L 282.144531 291.570312 L 284.429688 290.144531 C 285.714844 289.355469 298.070312 282.214844 311.785156 274.285156 C 325.570312 266.355469 337 259.644531 337.355469 259.355469 C 337.644531 259.070312 337.785156 244.355469 337.714844 226.644531 L 337.5 194.429688 Z M 310 210.285156 "/>
<path style=" stroke:none;fill-rule:nonzero;fill:rgb(0%,0%,0%);fill-opacity:1;" d="M 102.285156 229 L 102.5 261.570312 L 130 277.5 L 157.5 293.355469 L 157.714844 261.214844 C 157.785156 243.5 157.644531 228.785156 157.355469 228.5 C 157 228.144531 145.855469 221.644531 132.5 213.929688 C 119.144531 206.214844 106.855469 199.070312 105.144531 198.144531 L 102.144531 196.355469 Z M 102.285156 229 "/>
<path style=" stroke:none;fill-rule:nonzero;fill:rgb(0%,0%,0%);fill-opacity:1;" d="M 222.144531 228.855469 L 222.144531 261.285156 L 232.355469 267.214844 C 237.929688 270.5 250.429688 277.714844 260.214844 283.285156 L 277.855469 293.5 L 277.714844 260.929688 L 277.5 228.285156 L 251.785156 213.429688 C 237.644531 205.214844 225.214844 198.070312 224.144531 197.429688 L 222.144531 196.355469 Z M 222.144531 228.855469 "/>
</g>
</svg>
